<svg width="178" height="19" viewBox="0 0 178 19" fill="none" xmlns="http://www.w3.org/2000/svg">
<g id="Layer_1" clip-path="url(#clip0_3_45)">
<g id="Group">
<path id="Vector" d="M19.9847 15.9421C19.0696 15.5542 18.2007 15.1708 17.3179 14.8194C16.9482 14.6733 16.5507 14.509 16.1625 14.4999C14.5264 14.4634 12.8902 14.4862 11.2541 14.4816C10.7226 14.4816 10.2835 14.3264 10.2003 13.7286C10.1171 13.1352 10.5008 12.7701 11.231 12.7655C13.5373 12.7564 15.8436 12.7655 18.1499 12.7655C18.3347 12.7655 18.5196 12.7701 18.7045 12.7655C19.3053 12.7382 19.7259 12.3776 19.7351 11.8801C19.7444 11.3507 19.3192 10.9582 18.6814 10.9536C15.5247 10.9445 12.3633 10.9536 9.20664 10.9536C8.99866 10.9536 8.79068 10.9628 8.5827 10.9536C8.02808 10.9262 7.65371 10.6615 7.61212 10.091C7.57514 9.59356 8.00959 9.22843 8.63354 9.22843C11.1709 9.22387 13.7037 9.21931 16.241 9.22843C16.8188 9.22843 17.244 9.05044 17.3734 8.46168C17.4982 7.89118 17.0268 7.41652 16.3335 7.41195C14.8129 7.40283 13.2923 7.41195 11.7671 7.41195C11.2264 7.41195 10.8058 7.24765 10.7272 6.64976C10.6486 6.05188 11.0323 5.68676 11.7625 5.68219C13.26 5.67306 14.7574 5.68219 16.2595 5.68219C18.0574 5.68219 19.8553 5.68219 21.6532 5.68219C22.425 5.68219 22.8734 5.34446 22.878 4.77852C22.878 4.21714 22.4297 3.87028 21.6671 3.86571C18.4179 3.86571 15.1642 3.86571 11.915 3.85659C11.6054 3.85659 11.2079 3.83377 11.0092 3.65577C10.7965 3.46864 10.6024 2.97573 10.7087 2.79317C10.8844 2.49651 11.3003 2.18159 11.6285 2.16334C13.1028 2.09488 14.5772 2.16334 16.0516 2.1177C16.5045 2.104 16.999 1.97165 17.3965 1.75257C18.5936 1.09992 19.8414 0.698287 21.2141 0.698287C24.7406 0.693723 28.267 0.698287 31.7981 0.698287C31.9506 0.698287 32.1077 0.734799 32.2926 0.762183V15.9284C31.8304 15.9284 31.359 15.9284 30.8876 15.9284C29.8292 15.9284 28.7662 15.9467 27.7078 15.9147C27.5137 15.9102 27.2179 15.7595 27.1439 15.5952C26.312 13.7559 25.212 12.9572 23.5019 13.0074C21.9213 13.0531 20.7427 13.9887 19.9893 15.9558L19.9847 15.9421Z" fill="#198754"/>
<path id="Vector_2" d="M33.6376 15.8965V0.762189C33.864 0.739369 34.0813 0.698292 34.2985 0.698292C37.7787 0.698292 41.2589 0.66178 44.7392 0.711984C48.5013 0.766753 51.5748 3.42301 52.208 7.0651C52.8181 10.5703 50.7937 14.08 47.4106 15.4218C46.8744 15.6363 46.574 15.6728 46.269 15.0156C45.5942 13.5825 44.3648 12.8842 42.7472 12.9983C41.222 13.1079 40.1543 13.9066 39.6367 15.3214C39.4564 15.8143 39.2068 15.9147 38.74 15.9102C37.0623 15.8919 35.3846 15.901 33.6329 15.901L33.6376 15.8965ZM50.7475 8.93178C50.7568 8.84506 50.7706 8.75378 50.7706 8.66706C50.7937 5.13452 47.7202 2.13139 44.0182 2.09488C41.4161 2.07206 38.8094 2.08575 36.2027 2.09488C35.722 2.09488 35.1073 2.01729 35.1073 2.7019C35.1073 3.40019 35.7451 3.28609 36.2119 3.29065C38.7493 3.29978 41.282 3.25414 43.8194 3.3226C44.7438 3.34999 45.719 3.5006 46.5694 3.8429C48.8711 4.77396 50.1698 6.57218 50.7429 8.93634L50.7475 8.93178Z" fill="#198754"/>
<path id="Vector_3" d="M26.0902 16.5948C26.0717 17.9274 24.907 19.0411 23.5898 19C22.254 18.9544 21.2049 17.8772 21.2095 16.5537C21.2141 15.1936 22.3003 14.1211 23.6683 14.1302C25.0133 14.1393 26.1133 15.2529 26.0902 16.5993V16.5948ZM24.4771 16.5674C24.4217 16.0562 24.149 15.7504 23.6314 15.755C23.1137 15.7595 22.804 16.0745 22.8133 16.5765C22.8225 17.0694 23.1414 17.3935 23.6498 17.3889C24.1629 17.3889 24.4217 17.0557 24.4771 16.5674Z" fill="#198754"/>
<path id="Vector_4" d="M43.0245 14.1393C44.3833 14.1393 45.4694 15.2255 45.4694 16.5674C45.4694 17.9001 44.3509 18.9954 43.0014 18.9863C41.6795 18.9817 40.6211 17.9092 40.6119 16.5811C40.6026 15.2027 41.6564 14.1393 43.0245 14.1393ZM43.861 16.5354C43.7963 16.0471 43.5282 15.7413 43.0106 15.7458C42.493 15.7504 42.2064 16.0653 42.1694 16.5582C42.1325 17.0101 42.6039 17.4574 43.0568 17.4071C43.556 17.3524 43.8333 17.0557 43.8656 16.5354H43.861Z" fill="#198754"/>
<path id="Vector_5" d="M6.65539 7.39826C5.92052 7.39826 5.18566 7.41196 4.44617 7.39826C3.74827 7.38457 3.36004 7.04683 3.39701 6.49459C3.44323 5.85563 3.88693 5.67307 4.45079 5.6685C5.89742 5.66394 7.34867 5.6685 8.79529 5.6685C9.37764 5.6685 9.78899 5.88301 9.83983 6.50372C9.88604 7.04227 9.47008 7.38914 8.78605 7.40283C8.07429 7.41196 7.36253 7.40283 6.64615 7.40283L6.65539 7.39826Z" fill="#198754"/>
<path id="Vector_6" d="M7.56589 12.7701C7.91253 12.7701 8.30076 12.6697 8.59193 12.7975C8.89697 12.9344 9.23899 13.2448 9.3268 13.546C9.46084 13.9841 9.14655 14.3812 8.67975 14.4223C7.92639 14.4862 7.16379 14.4816 6.41044 14.4314C5.92515 14.3995 5.69868 14.0252 5.73103 13.5551C5.76338 13.085 6.04531 12.8021 6.5306 12.7701C6.87262 12.7473 7.22388 12.7656 7.56589 12.7656C7.56589 12.7656 7.56589 12.7656 7.56589 12.7701Z" fill="#198754"/>
<path id="Vector_7" d="M1.78865 10.9263C1.44664 10.9263 1.09538 10.9673 0.76261 10.9171C0.27732 10.8395 -0.0323421 10.5246 0.00463238 10.0226C0.0416069 9.53422 0.342025 9.233 0.855047 9.21931C1.49748 9.20105 2.13991 9.19649 2.77772 9.21931C3.2815 9.24213 3.5773 9.53879 3.59578 10.0454C3.61427 10.5657 3.29999 10.8487 2.81932 10.9171C2.48193 10.9628 2.13529 10.9263 1.78865 10.9263C1.78865 10.9263 1.78865 10.9263 1.78865 10.9217V10.9263Z" fill="#198754"/>
<path id="Vector_8" d="M5.67096 9.21474C6.38734 9.21931 6.74322 9.50227 6.75247 10.0636C6.75709 10.6433 6.35961 10.9536 5.62474 10.9445C4.93147 10.9354 4.53862 10.625 4.534 10.0819C4.534 9.5114 4.92685 9.21018 5.67096 9.21474Z" fill="#198754"/>
<path id="Vector_9" d="M8.56884 3.84747C7.9033 3.83378 7.47347 3.49604 7.47809 2.98031C7.47809 2.45088 7.93565 2.11314 8.64741 2.11771C9.29909 2.12227 9.73816 2.4737 9.73354 2.98487C9.73354 3.52342 9.2806 3.8566 8.57346 3.8429L8.56884 3.84747Z" fill="#198754"/>
</g>
<g id="Group_2">
<path id="Vector_10" d="M75.6453 9.31084C75.6453 15.6457 71.7491 19.0002 66.9932 19.0002C62.2374 19.0002 58.6185 15.2349 58.6185 9.66227C58.6185 3.82033 62.2975 0.000244141 67.2705 0.000244141C72.2436 0.000244141 75.6453 3.84771 75.6453 9.31084ZM61.1882 9.61206C61.1882 13.5417 63.3466 17.0651 67.1319 17.0651C70.9172 17.0651 73.1033 13.5964 73.1033 9.42037C73.1033 5.76003 71.1667 1.93995 67.1596 1.93995C63.1525 1.93995 61.1882 5.57291 61.1882 9.61206Z" fill="#215F42"/>
<path id="Vector_11" d="M81.173 0.301224V11.1955C81.173 15.3168 83.0263 17.0649 85.5128 17.0649C88.2767 17.0649 90.0468 15.2621 90.0468 11.1955V0.301224H92.4779V11.0312C92.4779 16.6815 89.4645 19.0046 85.4297 19.0046C81.6167 19.0046 78.7419 16.8458 78.7419 11.1408V0.301224H81.173Z" fill="#215F42"/>
<path id="Vector_12" d="M96.3187 15.8052C97.3955 16.4624 98.9716 17.0055 100.631 17.0055C103.09 17.0055 104.527 15.723 104.527 13.8655C104.527 12.1448 103.533 11.1636 101.014 10.2051C97.9733 9.14173 96.0922 7.5854 96.0922 4.99304C96.0922 2.12683 98.4955 -0.00456238 102.119 -0.00456238C104.028 -0.00456238 105.41 0.433583 106.237 0.894549L105.572 2.83426C104.961 2.50565 103.718 1.96253 102.031 1.96253C99.4892 1.96253 98.5187 3.46409 98.5187 4.71919C98.5187 6.43983 99.651 7.28417 102.225 8.27C105.377 9.47034 106.981 10.9719 106.981 13.6738C106.981 16.5126 104.851 18.9681 100.455 18.9681C98.6573 18.9681 96.6977 18.4478 95.6993 17.7951L96.3094 15.8006L96.3187 15.8052Z" fill="#215F42"/>
<path id="Vector_13" d="M126.203 9.31059C126.203 15.6454 122.307 19 117.551 19C112.795 19 109.177 15.2347 109.177 9.66202C109.177 3.82008 112.856 0 117.829 0C122.802 0 126.203 3.84747 126.203 9.31059ZM111.746 9.61182C111.746 13.5414 113.905 17.0649 117.69 17.0649C121.475 17.0649 123.661 13.5962 123.661 9.42013C123.661 5.75979 121.725 1.93971 117.718 1.93971C113.711 1.93971 111.746 5.57266 111.746 9.61182Z" fill="#215F42"/>
<path id="Vector_14" d="M129.323 0.547684C130.788 0.328611 132.531 0.164307 134.439 0.164307C137.897 0.164307 140.355 0.953881 141.987 2.45544C143.646 3.957 144.612 6.0884 144.612 9.06414C144.612 12.0399 143.674 14.5227 141.931 16.216C140.189 17.9366 137.314 18.8631 133.695 18.8631C131.981 18.8631 130.543 18.7809 129.328 18.644V0.547684H129.323ZM131.726 16.8184C132.336 16.9279 133.219 16.9553 134.157 16.9553C139.297 16.9553 142.093 14.1165 142.093 9.14629C142.121 4.80591 139.634 2.04925 134.546 2.04925C133.302 2.04925 132.364 2.15878 131.726 2.2957V16.8184Z" fill="#215F42"/>
<path id="Vector_15" d="M147.732 0.547684C148.781 0.328611 150.44 0.164307 152.127 0.164307C154.53 0.164307 156.079 0.575068 157.243 1.50156C158.209 2.21355 158.792 3.30435 158.792 4.75114C158.792 6.52655 157.604 8.08287 155.64 8.7903V8.84507C157.41 9.28321 159.48 10.73 159.48 13.4593C159.48 15.043 158.843 16.2433 157.904 17.147C156.606 18.32 154.503 18.8676 151.462 18.8676C149.802 18.8676 148.531 18.7581 147.727 18.6486V0.547684H147.732ZM150.135 8.08287H152.321C154.863 8.08287 156.356 6.773 156.356 4.9976C156.356 2.83882 154.697 1.99448 152.266 1.99448C151.161 1.99448 150.523 2.07663 150.135 2.15878V8.08287ZM150.135 16.9006C150.606 16.9827 151.295 17.0101 152.155 17.0101C154.641 17.0101 156.938 16.111 156.938 13.4319C156.938 10.9217 154.757 9.8811 152.127 9.8811H150.135V16.896V16.9006Z" fill="#215F42"/>
<path id="Vector_16" d="M162.716 0.547684C164.181 0.328611 165.923 0.164307 167.832 0.164307C171.289 0.164307 173.748 0.953881 175.379 2.45544C177.039 3.957 178.005 6.0884 178.005 9.06414C178.005 12.0399 177.066 14.5227 175.324 16.216C173.582 17.9366 170.707 18.8631 167.083 18.8631C165.369 18.8631 163.931 18.7809 162.716 18.644V0.547684ZM165.119 16.8184C165.729 16.9279 166.612 16.9553 167.55 16.9553C172.69 16.9553 175.486 14.1165 175.486 9.14629C175.513 4.80591 173.027 2.04925 167.938 2.04925C166.695 2.04925 165.752 2.15878 165.119 2.2957V16.8184Z" fill="#215F42"/>
</g>
</g>
<defs>
<clipPath id="clip0_3_45">
<rect width="178" height="19" fill="white"/>
</clipPath>
</defs>
</svg>
